<svg id="visual" viewBox="0 0 900 150" width="900" height="150" xmlns="http://www.w3.org/2000/svg" xmlns:xlink="http://www.w3.org/1999/xlink" version="1.1"><path d="M0 33L11.5 34.7C23 36.3 46 39.7 69 37.2C92 34.7 115 26.3 138.2 24.8C161.3 23.3 184.7 28.7 207.8 28.7C231 28.7 254 23.3 277 23.2C300 23 323 28 346 30.2C369 32.3 392 31.7 415.2 33.7C438.3 35.7 461.7 40.3 484.8 40.2C508 40 531 35 554 31C577 27 600 24 623 22.5C646 21 669 21 692.2 20.2C715.3 19.3 738.7 17.7 761.8 17.8C785 18 808 20 831 19C854 18 877 14 888.5 12L900 10L900 0L888.5 0C877 0 854 0 831 0C808 0 785 0 761.8 0C738.7 0 715.3 0 692.2 0C669 0 646 0 623 0C600 0 577 0 554 0C531 0 508 0 484.8 0C461.7 0 438.3 0 415.2 0C392 0 369 0 346 0C323 0 300 0 277 0C254 0 231 0 207.8 0C184.7 0 161.3 0 138.2 0C115 0 92 0 69 0C46 0 23 0 11.5 0L0 0Z" fill="#ffffff"></path><path d="M0 43L11.5 47.8C23 52.7 46 62.3 69 63.2C92 64 115 56 138.2 52.7C161.3 49.3 184.7 50.7 207.8 48.8C231 47 254 42 277 44C300 46 323 55 346 55.5C369 56 392 48 415.2 49.5C438.3 51 461.7 62 484.8 62.3C508 62.7 531 52.3 554 48.8C577 45.3 600 48.7 623 49.8C646 51 669 50 692.2 47.8C715.3 45.7 738.7 42.3 761.8 39.2C785 36 808 33 831 33C854 33 877 36 888.5 37.5L900 39L900 8L888.5 10C877 12 854 16 831 17C808 18 785 16 761.8 15.8C738.7 15.7 715.3 17.3 692.2 18.2C669 19 646 19 623 20.5C600 22 577 25 554 29C531 33 508 38 484.8 38.2C461.7 38.3 438.3 33.7 415.2 31.7C392 29.7 369 30.3 346 28.2C323 26 300 21 277 21.2C254 21.3 231 26.7 207.8 26.7C184.7 26.7 161.3 21.3 138.2 22.8C115 24.3 92 32.7 69 35.2C46 37.7 23 34.3 11.5 32.7L0 31Z" fill="#ffefca"></path><path d="M0 70L11.5 73.3C23 76.7 46 83.3 69 83.3C92 83.3 115 76.7 138.2 75.3C161.3 74 184.7 78 207.8 83.5C231 89 254 96 277 103C300 110 323 117 346 115.3C369 113.7 392 103.3 415.2 100.8C438.3 98.3 461.7 103.7 484.8 104.3C508 105 531 101 554 95.8C577 90.7 600 84.3 623 85.5C646 86.7 669 95.3 692.2 96.5C715.3 97.7 738.7 91.3 761.8 83C785 74.7 808 64.3 831 61.8C854 59.3 877 64.7 888.5 67.3L900 70L900 37L888.5 35.5C877 34 854 31 831 31C808 31 785 34 761.8 37.2C738.7 40.3 715.3 43.7 692.2 45.8C669 48 646 49 623 47.8C600 46.7 577 43.3 554 46.8C531 50.3 508 60.7 484.8 60.3C461.7 60 438.3 49 415.2 47.5C392 46 369 54 346 53.5C323 53 300 44 277 42C254 40 231 45 207.8 46.8C184.7 48.7 161.3 47.3 138.2 50.7C115 54 92 62 69 61.2C46 60.3 23 50.7 11.5 45.8L0 41Z" fill="#ffe095"></path><path d="M0 82L11.5 84.5C23 87 46 92 69 93C92 94 115 91 138.2 91.5C161.3 92 184.7 96 207.8 103.3C231 110.7 254 121.3 277 127.2C300 133 323 134 346 132.2C369 130.3 392 125.7 415.2 122.7C438.3 119.7 461.7 118.3 484.8 117.8C508 117.3 531 117.7 554 114.7C577 111.7 600 105.3 623 106.8C646 108.3 669 117.7 692.2 118.3C715.3 119 738.7 111 761.8 102C785 93 808 83 831 80.5C854 78 877 83 888.5 85.5L900 88L900 68L888.5 65.3C877 62.7 854 57.3 831 59.8C808 62.3 785 72.7 761.8 81C738.7 89.3 715.3 95.7 692.2 94.5C669 93.3 646 84.7 623 83.5C600 82.3 577 88.7 554 93.8C531 99 508 103 484.8 102.3C461.7 101.7 438.3 96.3 415.2 98.8C392 101.3 369 111.7 346 113.3C323 115 300 108 277 101C254 94 231 87 207.8 81.5C184.7 76 161.3 72 138.2 73.3C115 74.7 92 81.3 69 81.3C46 81.3 23 74.7 11.5 71.3L0 68Z" fill="#ffd25d"></path><path d="M0 151L11.5 151C23 151 46 151 69 151C92 151 115 151 138.2 151C161.3 151 184.7 151 207.8 151C231 151 254 151 277 151C300 151 323 151 346 151C369 151 392 151 415.2 151C438.3 151 461.7 151 484.8 151C508 151 531 151 554 151C577 151 600 151 623 151C646 151 669 151 692.2 151C715.3 151 738.7 151 761.8 151C785 151 808 151 831 151C854 151 877 151 888.5 151L900 151L900 86L888.5 83.5C877 81 854 76 831 78.5C808 81 785 91 761.8 100C738.7 109 715.3 117 692.2 116.3C669 115.7 646 106.3 623 104.8C600 103.3 577 109.7 554 112.7C531 115.7 508 115.3 484.8 115.8C461.7 116.3 438.3 117.7 415.2 120.7C392 123.7 369 128.3 346 130.2C323 132 300 131 277 125.2C254 119.3 231 108.7 207.8 101.3C184.7 94 161.3 90 138.2 89.5C115 89 92 92 69 91C46 90 23 85 11.5 82.5L0 80Z" fill="#ffc300"></path></svg>