<svg id="visual" viewBox="0 0 960 300" width="960" height="300" xmlns="http://www.w3.org/2000/svg" xmlns:xlink="http://www.w3.org/1999/xlink" version="1.1"><path d="M0 85L14.5 83C29 81 58 77 87.2 83.5C116.3 90 145.7 107 174.8 111.5C204 116 233 108 262 102C291 96 320 92 349 86C378 80 407 72 436.2 66.5C465.3 61 494.7 58 523.8 60.5C553 63 582 71 611 76.5C640 82 669 85 698 82C727 79 756 70 785.2 70.5C814.3 71 843.7 81 872.8 84.5C902 88 931 85 945.5 83.5L960 82L960 0L945.5 0C931 0 902 0 872.8 0C843.7 0 814.3 0 785.2 0C756 0 727 0 698 0C669 0 640 0 611 0C582 0 553 0 523.8 0C494.7 0 465.3 0 436.2 0C407 0 378 0 349 0C320 0 291 0 262 0C233 0 204 0 174.8 0C145.7 0 116.3 0 87.2 0C58 0 29 0 14.5 0L0 0Z" fill="#ffc300"></path><path d="M0 172L14.5 168C29 164 58 156 87.2 160.5C116.3 165 145.7 182 174.8 192C204 202 233 205 262 200C291 195 320 182 349 175C378 168 407 167 436.2 170.5C465.3 174 494.7 182 523.8 178C553 174 582 158 611 155.5C640 153 669 164 698 164C727 164 756 153 785.2 154C814.3 155 843.7 168 872.8 167.5C902 167 931 153 945.5 146L960 139L960 80L945.5 81.5C931 83 902 86 872.8 82.5C843.7 79 814.3 69 785.2 68.5C756 68 727 77 698 80C669 83 640 80 611 74.5C582 69 553 61 523.8 58.5C494.7 56 465.3 59 436.2 64.5C407 70 378 78 349 84C320 90 291 94 262 100C233 106 204 114 174.8 109.5C145.7 105 116.3 88 87.2 81.5C58 75 29 79 14.5 81L0 83Z" fill="#ffd25d"></path><path d="M0 196L14.5 195C29 194 58 192 87.2 196C116.3 200 145.7 210 174.8 219.5C204 229 233 238 262 233.5C291 229 320 211 349 201.5C378 192 407 191 436.2 199C465.3 207 494.7 224 523.8 224C553 224 582 207 611 199.5C640 192 669 194 698 193.5C727 193 756 190 785.2 196C814.3 202 843.7 217 872.8 215C902 213 931 194 945.5 184.5L960 175L960 137L945.5 144C931 151 902 165 872.8 165.5C843.7 166 814.3 153 785.2 152C756 151 727 162 698 162C669 162 640 151 611 153.5C582 156 553 172 523.8 176C494.7 180 465.3 172 436.2 168.5C407 165 378 166 349 173C320 180 291 193 262 198C233 203 204 200 174.8 190C145.7 180 116.3 163 87.2 158.5C58 154 29 162 14.5 166L0 170Z" fill="#ffe095"></path><path d="M0 256L14.5 255C29 254 58 252 87.2 254C116.3 256 145.7 262 174.8 266C204 270 233 272 262 270.5C291 269 320 264 349 261C378 258 407 257 436.2 259.5C465.3 262 494.7 268 523.8 270C553 272 582 270 611 269C640 268 669 268 698 263.5C727 259 756 250 785.2 249C814.3 248 843.7 255 872.8 255.5C902 256 931 250 945.5 247L960 244L960 173L945.5 182.5C931 192 902 211 872.8 213C843.7 215 814.3 200 785.2 194C756 188 727 191 698 191.5C669 192 640 190 611 197.5C582 205 553 222 523.8 222C494.7 222 465.3 205 436.2 197C407 189 378 190 349 199.5C320 209 291 227 262 231.5C233 236 204 227 174.8 217.5C145.7 208 116.3 198 87.2 194C58 190 29 192 14.5 193L0 194Z" fill="#ffefca"></path><path d="M0 301L14.5 301C29 301 58 301 87.2 301C116.3 301 145.7 301 174.8 301C204 301 233 301 262 301C291 301 320 301 349 301C378 301 407 301 436.2 301C465.3 301 494.7 301 523.8 301C553 301 582 301 611 301C640 301 669 301 698 301C727 301 756 301 785.2 301C814.3 301 843.7 301 872.8 301C902 301 931 301 945.5 301L960 301L960 242L945.5 245C931 248 902 254 872.8 253.5C843.7 253 814.3 246 785.2 247C756 248 727 257 698 261.5C669 266 640 266 611 267C582 268 553 270 523.8 268C494.7 266 465.3 260 436.2 257.5C407 255 378 256 349 259C320 262 291 267 262 268.5C233 270 204 268 174.8 264C145.7 260 116.3 254 87.2 252C58 250 29 252 14.5 253L0 254Z" fill="#ffffff"></path></svg>